<?xml version="1.0" standalone="no"?>
<!DOCTYPE svg PUBLIC "-//W3C//DTD SVG 20010904//EN"
 "http://www.w3.org/TR/2001/REC-SVG-20010904/DTD/svg10.dtd">
<svg version="1.0" xmlns="http://www.w3.org/2000/svg"
 width="512.000000pt" height="512.000000pt" viewBox="0 0 512.000000 512.000000"
 preserveAspectRatio="xMidYMid meet">
<metadata>
Created by potrace 1.14, written by Peter Selinger 2001-2017
</metadata>
<g transform="translate(0.000000,512.000000) scale(0.100000,-0.100000)"
fill="#000000" stroke="none">
<path d="M795 4904 c-231 -53 -361 -120 -503 -258 -130 -125 -219 -281 -264
-463 -30 -121 -30 -332 0 -445 63 -234 200 -434 381 -557 72 -49 213 -118 261
-128 31 -6 32 -7 26 -52 -3 -25 -8 -166 -12 -313 l-7 -267 -70 -53 c-465 -345
-618 -987 -359 -1503 112 -223 309 -422 527 -532 90 -46 227 -91 323 -108 126
-22 2797 -22 2923 0 364 63 685 307 857 650 35 70 86 225 101 309 31 170 23
359 -25 538 -30 114 -125 309 -194 400 -113 149 -258 272 -335 283 -116 18
-224 -75 -225 -192 0 -73 24 -113 121 -202 204 -189 288 -387 276 -650 -16
-350 -242 -634 -584 -733 l-78 -23 -1375 0 -1375 0 -78 23 c-340 98 -568 382
-584 728 -9 174 25 317 108 457 59 100 192 231 296 290 89 51 125 90 142 152
7 24 11 149 11 322 0 298 7 379 46 532 65 260 193 487 383 685 77 79 217 190
302 239 l45 27 11 -59 c23 -124 93 -256 183 -351 142 -148 352 -231 550 -217
152 11 268 55 393 148 120 90 219 244 254 397 10 39 21 72 26 72 18 0 174
-109 252 -177 197 -171 359 -412 439 -659 34 -103 55 -137 107 -171 40 -26 49
-28 138 -27 261 3 524 133 692 341 226 281 278 648 140 982 -91 218 -302 425
-521 509 -134 51 -168 57 -340 57 -142 0 -176 -3 -245 -23 -199 -57 -378 -179
-498 -338 l-69 -92 -62 28 c-306 138 -679 187 -1026 134 -163 -25 -392 -93
-499 -148 l-30 -16 -32 47 c-125 185 -312 320 -529 383 -59 18 -108 23 -225
26 -82 1 -159 1 -170 -2z m256 -398 c127 -27 255 -110 323 -209 l39 -56 -34
-28 c-225 -184 -427 -453 -542 -720 -15 -37 -33 -63 -41 -63 -29 0 -121 47
-181 93 -265 201 -289 595 -51 833 135 134 308 188 487 150z m3234 -1 c108
-23 190 -68 271 -149 201 -202 220 -507 45 -739 -59 -79 -178 -161 -263 -182
-26 -7 -29 -4 -55 56 -104 244 -249 448 -457 646 l-115 109 19 29 c36 56 125
137 185 170 129 71 236 88 370 60z m-1476 -285 l63 -13 -4 -76 c-5 -94 -31
-153 -94 -216 -114 -113 -314 -113 -428 0 -63 63 -89 122 -94 216 l-4 77 68
11 c38 6 80 12 94 15 46 8 334 -2 399 -14z"/>
<path d="M1735 3092 c-50 -23 -91 -70 -106 -120 -7 -23 -10 -97 -7 -194 3
-155 3 -157 33 -200 84 -120 254 -116 330 7 l30 48 0 166 c0 153 -2 169 -23
208 -47 89 -166 128 -257 85z"/>
<path d="M3209 3087 c-90 -48 -112 -113 -107 -312 3 -137 4 -143 33 -190 76
-123 246 -127 330 -7 30 43 30 45 33 200 3 97 0 171 -7 194 -35 115 -174 172
-282 115z"/>
<path d="M2285 2151 c-85 -40 -131 -127 -114 -218 15 -77 67 -131 147 -152
l42 -12 0 -150 c0 -162 -7 -189 -56 -228 -59 -47 -154 -36 -199 24 -18 22 -29
54 -35 95 -10 72 -32 112 -83 153 -69 57 -201 46 -258 -19 -78 -89 -66 -263
28 -423 150 -252 508 -334 751 -170 23 16 47 29 52 29 5 0 29 -13 52 -29 134
-91 322 -110 481 -51 67 25 161 86 204 131 47 50 101 146 124 219 65 210 -15
359 -187 348 -52 -3 -70 -9 -101 -35 -51 -41 -73 -81 -83 -152 -5 -34 -18 -74
-29 -90 -60 -83 -187 -77 -241 12 -17 28 -20 51 -20 184 l0 152 42 12 c80 21
132 75 147 152 17 91 -29 178 -114 218 -35 16 -67 19 -275 19 -208 0 -240 -3
-275 -19z"/>
</g>
</svg>
